<svg id="Layer_1" data-name="Layer 1" xmlns="http://www.w3.org/2000/svg" viewBox="0 0 206.27 62.63"><defs><style>.cls-1{fill:#2a2d34;}.cls-2,.cls-4{fill:none;stroke-linecap:round;stroke-linejoin:round;stroke-width:2.15px;}.cls-2{stroke:#2a2d34;}.cls-3{fill:#addab8;}.cls-4{stroke:#fff;}</style></defs><title>primarylogo</title><polygon class="cls-1" points="53.91 60.15 9.21 60.15 9.21 28.03 31.55 5.65 53.91 28.03 53.91 60.15"/><polyline class="cls-2" points="1.08 31.14 31.71 1.08 62.03 30.85"/><polygon class="cls-3" points="42.93 62.63 20.18 62.63 20.18 37.13 31.55 25.74 42.93 37.13 42.93 62.63"/><polyline class="cls-4" points="16.05 36.37 31.63 21.07 47.06 36.23"/><path class="cls-1" d="M76.09,53.6c0-1.52,1.24-2.54,3-2.54a4.15,4.15,0,0,1,2.23.61c.34.22.52.39.52.67a.86.86,0,0,1-.72.85,1.44,1.44,0,0,1-.58-.24,2.76,2.76,0,0,0-1.43-.44c-.89,0-1.39.44-1.39,1,0,1.55,4.31,1.22,4.31,4.18,0,1.69-1.38,2.68-3.2,2.68a4.05,4.05,0,0,1-2.38-.71c-.34-.23-.52-.44-.52-.71a.88.88,0,0,1,.72-.85,1.22,1.22,0,0,1,.6.27,3,3,0,0,0,1.6.53c.88,0,1.52-.45,1.52-1.13C80.4,56,76.09,56.43,76.09,53.6Z" transform="translate(-4.33 -0.38)"/><path class="cls-1" d="M88.11,51.06c2.7,0,4.43,1.8,4.43,4.65s-1.74,4.69-4.43,4.69-4.42-1.82-4.42-4.69S85.43,51.06,88.11,51.06Zm0,7.88c1.63,0,2.71-1.22,2.71-3.23s-1.08-3.2-2.71-3.2-2.68,1.21-2.68,3.2S86.48,58.94,88.11,58.94Z" transform="translate(-4.33 -0.38)"/><path class="cls-1" d="M96.34,55.57h2.59c.45,0,.69.25.69.74s-.23.75-.69.75H96.34v2.55c0,.46-.28.69-.83.69s-.85-.23-.85-.69V52.09c0-.61.27-.88.88-.88h3.7c.45,0,.69.25.69.74s-.24.75-.69.75h-2.9Z" transform="translate(-4.33 -0.38)"/><path class="cls-1" d="M105.62,59.61c0,.46-.28.69-.83.69s-.83-.23-.83-.69V52.7h-2.1c-.45,0-.69-.25-.69-.75s.23-.74.69-.74h5.86c.45,0,.69.25.69.74s-.24.75-.69.75h-2.1Z" transform="translate(-4.33 -0.38)"/><path class="cls-1" d="M114,59.49c-.16.55-.36.8-1.13.8s-1-.25-1.1-.75l-1.88-7.38a2.63,2.63,0,0,1-.08-.49c0-.27.17-.52.83-.52s.8.2.89.71L113,58.3l1.74-6a1.1,1.1,0,0,1,2.13,0l1.69,6,1.5-6.42c.09-.5.3-.71.88-.71s.8.25.8.52a1.9,1.9,0,0,1-.09.49l-1.93,7.37c-.14.52-.36.77-1.08.77s-1-.22-1.14-.8l-1.72-5.94Z" transform="translate(-4.33 -0.38)"/><path class="cls-1" d="M130.45,59.83c0,.27-.2.45-.78.45s-.8-.24-.92-.6l-.56-1.61h-3.62L124,59.69c-.12.36-.31.6-.92.6s-.74-.19-.74-.45a1.63,1.63,0,0,1,.14-.56L125.2,52c.24-.64.49-.88,1.19-.88a1.08,1.08,0,0,1,1.22.88l2.7,7.24A1.61,1.61,0,0,1,130.45,59.83Zm-2.77-3.17-1.32-3.76L125,56.67Z" transform="translate(-4.33 -0.38)"/><path class="cls-1" d="M138.87,59.87c0,.28-.2.44-.78.44a1.24,1.24,0,0,1-1.25-.72l-1.66-2.44c-.22,0-.44,0-.67,0a4.42,4.42,0,0,1-.53,0v2.48c0,.46-.27.69-.8.69s-.82-.23-.82-.69V52.41c0-.44,0-.91.74-1.11a7.3,7.3,0,0,1,1.65-.17c2.3,0,3.73,1,3.73,2.91a2.81,2.81,0,0,1-1.71,2.7l1.57,2.16C138.71,59.44,138.87,59.63,138.87,59.87Zm-4.33-4.06c1.46,0,2.22-.61,2.22-1.66s-.8-1.61-2.07-1.61a4.49,4.49,0,0,0-.77.06v3.18C134.12,55.79,134.34,55.81,134.54,55.81Z" transform="translate(-4.33 -0.38)"/><path class="cls-1" d="M145.06,54.87c.45,0,.69.24.69.72s-.24.72-.69.72h-2.71v2.48h3.37c.45,0,.69.23.69.72s-.24.72-.69.72h-4.07c-.61,0-.88-.27-.88-.88V52.09c0-.61.27-.88.88-.88h4c.45,0,.69.24.69.72s-.24.72-.69.72h-3.28v2.21Z" transform="translate(-4.33 -0.38)"/><path class="cls-1" d="M158.82,56.32a.61.61,0,0,1-.69.69h-2.27v2.55c0,.45-.25.69-.74.69s-.74-.24-.74-.69V57h-2.27a.61.61,0,0,1-.69-.69.6.6,0,0,1,.69-.67h2.27V53.1c0-.46.25-.69.74-.69s.74.23.74.69v2.55h2.27A.6.6,0,0,1,158.82,56.32Z" transform="translate(-4.33 -0.38)"/><path class="cls-1" d="M166.81,60.32a7.23,7.23,0,0,1-1.69-.17c-.72-.19-.74-.64-.74-1.1V52.41c0-.44,0-.91.74-1.11a7.73,7.73,0,0,1,1.72-.17c3.21,0,5,1.69,5,4.58S170,60.32,166.81,60.32Zm.08-1.46a2.86,2.86,0,0,0,3.2-3.13,2.87,2.87,0,0,0-3.2-3.15,7.41,7.41,0,0,0-.83,0v6.19A7.41,7.41,0,0,0,166.89,58.86Z" transform="translate(-4.33 -0.38)"/><path class="cls-1" d="M178.23,54.87c.45,0,.69.24.69.72s-.24.72-.69.72h-2.71v2.48h3.37c.45,0,.69.23.69.72s-.24.72-.69.72h-4.07c-.61,0-.88-.27-.88-.88V52.09c0-.61.27-.88.88-.88h4c.45,0,.69.24.69.72s-.24.72-.69.72h-3.28v2.21Z" transform="translate(-4.33 -0.38)"/><path class="cls-1" d="M181.13,53.6c0-1.52,1.24-2.54,3-2.54a4.15,4.15,0,0,1,2.23.61c.34.22.52.39.52.67a.86.86,0,0,1-.72.85,1.44,1.44,0,0,1-.58-.24,2.77,2.77,0,0,0-1.43-.44c-.89,0-1.39.44-1.39,1,0,1.55,4.31,1.22,4.31,4.18,0,1.69-1.38,2.68-3.2,2.68a4.05,4.05,0,0,1-2.38-.71c-.34-.23-.52-.44-.52-.71a.88.88,0,0,1,.72-.85,1.22,1.22,0,0,1,.6.27,3,3,0,0,0,1.6.53c.88,0,1.52-.45,1.52-1.13C185.44,56,181.13,56.43,181.13,53.6Z" transform="translate(-4.33 -0.38)"/><path class="cls-1" d="M190.83,59.61c0,.46-.28.69-.83.69s-.85-.23-.85-.69V51.83c0-.45.28-.69.85-.69s.83.24.83.69Z" transform="translate(-4.33 -0.38)"/><path class="cls-1" d="M197.57,56.73c-.45,0-.69-.24-.69-.72s.24-.72.69-.72h2.08c.61,0,.88.27.88.88v2.71a1,1,0,0,1-.74,1,6.36,6.36,0,0,1-2.29.41,4.29,4.29,0,0,1-4.56-4.62,4.27,4.27,0,0,1,4.48-4.64,4.71,4.71,0,0,1,2.33.58c.42.25.67.53.67.82a.85.85,0,0,1-.74.8c-.19,0-.38-.16-.67-.33a3.13,3.13,0,0,0-1.57-.38c-1.68,0-2.77,1.07-2.77,3.12s1.14,3.2,2.9,3.2a4.67,4.67,0,0,0,1.38-.22V56.73Z" transform="translate(-4.33 -0.38)"/><path class="cls-1" d="M204.4,59.61c0,.46-.25.69-.75.69s-.77-.23-.77-.69V52c0-.59.38-.89,1.08-.89a1.32,1.32,0,0,1,1.29.74L209,58.08V51.83c0-.45.25-.69.77-.69s.75.24.75.69v7.58c0,.59-.33.89-1,.89a1.3,1.3,0,0,1-1.25-.75l-3.89-6.27Z" transform="translate(-4.33 -0.38)"/><path class="cls-1" d="M85.19,40.82a5.45,5.45,0,0,0,2.48-.67,2.81,2.81,0,0,1,1.39-.42,2.54,2.54,0,0,1,2.39,2.6,2.09,2.09,0,0,1-1.09,1.76,9.54,9.54,0,0,1-5.42,1.51c-5.33,0-9.32-3.86-9.32-9.78S79.48,26,85,26a9.65,9.65,0,0,1,5.25,1.39,2.15,2.15,0,0,1,1.18,1.85,2.61,2.61,0,0,1-2.35,2.69,2.72,2.72,0,0,1-1.39-.46,5.46,5.46,0,0,0-2.52-.63c-2.48,0-3.82,1.85-3.82,4.91S82.71,40.82,85.19,40.82Z" transform="translate(-4.33 -0.38)"/><path class="cls-1" d="M103.38,25.87c6,0,9.7,3.95,9.7,9.87,0,6.09-3.86,10-9.87,10s-9.66-3.91-9.66-9.87S97.41,25.87,103.38,25.87Zm0,15.33c2.44,0,3.95-2.06,3.95-5.33s-1.6-5.42-4-5.42-3.95,2-3.95,5.29S100.9,41.2,103.33,41.2Z" transform="translate(-4.33 -0.38)"/><path class="cls-1" d="M122.53,43.26c0,1.51-.92,2.27-2.81,2.27s-2.81-.76-2.81-2.27V28.35c0-1.51.88-2.27,2.73-2.27s2.65,1,2.6,2.27v.84A5.28,5.28,0,0,1,127.06,26c1.6,0,2.31.76,2.31,2.52,0,2-.88,2.52-2.56,2.6-2.31.08-3.44.55-4.28,1.85Z" transform="translate(-4.33 -0.38)"/><path class="cls-1" d="M139.7,26.08a6.38,6.38,0,0,1,3.32.71V19.07c0-1.51.92-2.27,2.81-2.27s2.81.76,2.81,2.27V43.26c0,1.55-1,2.27-2.77,2.27s-2.48-.63-2.48-1.76v-.25a5.92,5.92,0,0,1-4.83,2.06c-4.62,0-8.27-3.49-8.27-9.53S134,26.08,139.7,26.08Zm.76,4.54c-2.73,0-4.41,1.85-4.41,5.12S137.77,41,140.38,41a4.19,4.19,0,0,0,2.65-.88V31.33A4.69,4.69,0,0,0,140.46,30.62Z" transform="translate(-4.33 -0.38)"/><path class="cls-1" d="M169.77,42.17c0,1-.67,1.51-1.47,2a11.22,11.22,0,0,1-6,1.47c-6.26,0-9.78-3.61-9.78-9.74s3.49-10,9.11-10,8.65,3.82,8.65,8.27c0,2.94-1.43,3.28-3.19,3.28h-9.15c.46,2.35,1.89,3.61,4.49,3.61a7.46,7.46,0,0,0,3.44-.88,3.74,3.74,0,0,1,1.64-.55A2.51,2.51,0,0,1,169.77,42.17Zm-11.88-8.36h7.05c0-2-1-3.61-3.4-3.61C159.44,30.2,158.23,31.46,157.89,33.81Z" transform="translate(-4.33 -0.38)"/><path class="cls-1" d="M179.73,43.26c0,1.51-.92,2.27-2.81,2.27s-2.81-.76-2.81-2.27V19.07c0-1.51.92-2.27,2.81-2.27s2.81.76,2.81,2.27Z" transform="translate(-4.33 -0.38)"/><path class="cls-1" d="M187.5,23.81a3.16,3.16,0,0,1-3.32-3.28,3.32,3.32,0,0,1,6.63,0A3.16,3.16,0,0,1,187.5,23.81Zm2.81,19.44c0,1.51-.92,2.27-2.81,2.27s-2.81-.76-2.81-2.27V28.35c0-1.51.92-2.27,2.81-2.27s2.81.76,2.81,2.27Z" transform="translate(-4.33 -0.38)"/><path class="cls-1" d="M202.28,30.62a8.4,8.4,0,0,0-3.49.84A4.55,4.55,0,0,1,197,32c-1.3,0-2.14-1.55-2.14-2.65,0-.8.46-1.39,1.51-2A13.38,13.38,0,0,1,202.78,26c3,0,5.25.76,6.51,2.23a7.22,7.22,0,0,1,1.3,4.7V43.21c0,1.6-.76,2.31-2.73,2.31-1.68,0-2.35-.5-2.35-1.72v-.34a6.53,6.53,0,0,1-5.21,2.06c-3.86,0-6.21-2.1-6.21-5.46,0-3.78,3-5.92,11.09-6.63v-.29C205.18,31.54,204.46,30.62,202.28,30.62Zm-2.48,8.94c0,1,.63,1.72,2.23,1.72a4.9,4.9,0,0,0,3.15-1.18v-3.4C201.57,37.17,199.8,37.92,199.8,39.56Z" transform="translate(-4.33 -0.38)"/></svg>